<svg xmlns="http://www.w3.org/2000/svg" xmlns:xlink="http://www.w3.org/1999/xlink" width="500" zoomAndPan="magnify" viewBox="0 0 375 374.999991" height="500" preserveAspectRatio="xMidYMid meet" version="1.0"><path stroke-linecap="butt" transform="matrix(4.223627, 0, 0, 4.223627, 71.635591, 31.225768)" fill="none" stroke-linejoin="miter" d="M 27.407471 57.999802 L 19.464801 40.345212 L 27.094869 23.926231 L 15.415779 23.926231 L 12.108491 32.610636 L 12.108491 23.926231 L 1.380153 23.926231 L 1.380153 57.999802 L 12.108491 57.999802 L 12.108491 48.886264 L 15.72838 57.999802 Z M 42.498358 49.419906 C 42.498358 49.471698 42.446566 49.524415 42.393849 49.524415 L 39.777429 49.524415 L 39.777429 32.454335 L 42.393849 32.454335 C 42.446566 32.454335 42.498358 32.507052 42.498358 32.558844 Z M 48.044723 57.999802 C 51.729353 57.999802 53.591089 56.619916 53.591089 53.781531 L 53.591089 28.236063 C 53.591089 25.358834 51.729353 23.926231 48.044723 23.926231 L 28.683773 23.926231 L 28.683773 57.999802 Z M 48.044723 57.999802 " stroke="#ffffff" stroke-width="1.999999" stroke-opacity="1" stroke-miterlimit="4"/></svg>