<svg xmlns="http://www.w3.org/2000/svg" xmlns:xlink="http://www.w3.org/1999/xlink" width="1080" zoomAndPan="magnify" viewBox="0 0 810 809.999993" height="1080" preserveAspectRatio="xMidYMid meet" version="1.0"><defs><g/></defs><g fill="#000000" fill-opacity="1"><g transform="translate(40.500001, 425.398441)"><g><path d="M 27.707031 -54.378906 L 2.511719 -54.378906 C 1.644531 -54.378906 1.558594 -53.078125 2.425781 -52.90625 C 5.367188 -52.472656 7.878906 -53.167969 7.878906 -48.578125 L 7.878906 -5.714844 C 7.878906 -1.125 5.367188 -1.820312 2.425781 -1.386719 C 1.558594 -1.210938 1.644531 0.0859375 2.511719 0.0859375 L 19.65625 0.0859375 C 20.523438 0.0859375 20.609375 -1.210938 19.742188 -1.386719 C 16.796875 -1.820312 14.289062 -1.125 14.289062 -5.714844 L 14.289062 -48.75 C 14.289062 -51.78125 16.105469 -52.386719 18.269531 -52.386719 L 18.011719 -52.472656 C 18.53125 -52.472656 19.222656 -52.472656 20.953125 -52.472656 C 34.980469 -52.472656 43.726562 -47.277344 43.726562 -36.195312 C 43.726562 -25.109375 33.683594 -19.308594 20.867188 -19.308594 C 19.570312 -19.308594 20.089844 -19.394531 18.789062 -19.570312 C 17.316406 -19.742188 17.316406 -17.835938 18.875 -17.835938 L 21.128906 -17.925781 C 33.511719 -16.539062 51.085938 -21.128906 51.085938 -36.28125 C 51.085938 -48.230469 40.003906 -54.378906 27.707031 -54.378906 Z M 27.707031 -54.378906 "/></g></g></g><g fill="#000000" fill-opacity="1"><g transform="translate(93.319731, 425.398441)"><g><path d="M 10.476562 -44.507812 C 13.25 -44.507812 14.375 -49.097656 14.375 -51 C 14.375 -53.597656 12.382812 -54.898438 10.476562 -54.898438 C 8.484375 -54.898438 6.496094 -53.597656 6.496094 -51 C 6.496094 -49.007812 7.621094 -44.507812 10.476562 -44.507812 Z M 19.222656 -1.472656 C 16.367188 -1.992188 13.769531 -1.210938 13.769531 -5.800781 L 13.769531 -39.746094 C 13.769531 -40.351562 13.25 -40.4375 12.730469 -40.175781 C 9.871094 -38.792969 6.40625 -37.753906 3.289062 -36.886719 C 1.90625 -36.539062 2.25 -35.328125 3.203125 -35.328125 C 7.273438 -35.328125 7.878906 -35.414062 7.878906 -30.738281 L 7.878906 -5.800781 C 7.878906 -1.210938 5.367188 -1.992188 2.425781 -1.472656 C 1.558594 -1.300781 1.644531 0 2.511719 0 L 19.136719 0 C 20.089844 0 20.089844 -1.300781 19.222656 -1.472656 Z M 19.222656 -1.472656 "/></g></g></g><g fill="#000000" fill-opacity="1"><g transform="translate(114.967166, 425.398441)"><g><path d="M 47.539062 -1.472656 C 44.59375 -1.992188 42.082031 -1.210938 42.082031 -5.800781 L 42.082031 -28.835938 C 42.082031 -36.453125 35.328125 -40.351562 28.140625 -40.351562 C 22.601562 -40.351562 16.796875 -38.011719 13.769531 -33.164062 L 13.769531 -39.746094 C 13.769531 -40.351562 13.160156 -40.4375 12.730469 -40.175781 C 9.871094 -38.792969 6.40625 -37.753906 3.203125 -36.886719 C 1.820312 -36.539062 2.25 -35.328125 3.117188 -35.328125 C 7.273438 -35.328125 7.792969 -35.414062 7.792969 -30.738281 L 7.792969 -5.800781 C 7.792969 -1.210938 5.28125 -1.992188 2.425781 -1.472656 C 1.558594 -1.300781 1.558594 0 2.511719 0 L 19.136719 0 C 20.003906 0 20.089844 -1.300781 19.222656 -1.472656 C 16.277344 -1.992188 13.769531 -1.210938 13.769531 -5.800781 L 13.769531 -26.410156 C 13.769531 -33.335938 20.433594 -37.058594 26.410156 -37.058594 C 31.519531 -37.058594 36.109375 -34.460938 36.109375 -28.835938 L 36.109375 -5.800781 C 36.109375 -1.210938 33.597656 -1.992188 30.652344 -1.472656 C 29.875 -1.300781 29.875 0 30.738281 0 L 47.449219 0 C 48.316406 0 48.316406 -1.300781 47.539062 -1.472656 Z M 47.539062 -1.472656 "/></g></g></g><g fill="#000000" fill-opacity="1"><g transform="translate(164.84284, 425.398441)"><g><path d="M 46.238281 -1.386719 C 43.382812 -1.90625 42.082031 -1.558594 38.359375 -5.367188 L 38.359375 -5.28125 L 23.121094 -21.386719 C 26.667969 -25.542969 30.480469 -29.960938 33.511719 -33.597656 L 33.511719 -33.511719 C 36.453125 -36.800781 38.792969 -37.925781 43.8125 -38.273438 C 44.59375 -38.359375 44.59375 -39.746094 43.640625 -39.746094 L 27.621094 -39.746094 C 26.667969 -39.746094 26.667969 -38.359375 27.535156 -38.273438 C 30.652344 -38.097656 33.769531 -37.667969 31.433594 -34.980469 C 31.433594 -34.980469 31.433594 -34.980469 31.519531 -35.070312 L 13.769531 -14.289062 L 13.769531 -60.960938 C 13.769531 -61.566406 13.25 -61.566406 12.730469 -61.304688 C 9.871094 -59.921875 6.40625 -58.882812 3.289062 -58.101562 C 1.90625 -57.667969 2.339844 -56.542969 3.203125 -56.542969 C 7.273438 -56.542969 7.878906 -56.542969 7.878906 -51.953125 L 7.878906 -5.800781 C 7.878906 -1.210938 5.367188 -1.992188 2.425781 -1.472656 C 1.558594 -1.300781 1.644531 0 2.511719 0 L 19.136719 0 C 20.089844 0 20.089844 -1.300781 19.222656 -1.472656 C 16.367188 -1.992188 13.769531 -1.210938 13.769531 -5.800781 L 13.769531 -10.652344 C 14.980469 -12.035156 16.539062 -13.769531 18.269531 -15.757812 C 18.53125 -16.019531 18.964844 -16.191406 19.394531 -16.191406 C 19.828125 -16.191406 20.347656 -16.019531 20.78125 -15.585938 L 30.824219 -5.023438 C 33.25 -2.511719 32.472656 -1.820312 30.132812 -1.386719 C 29.265625 -1.300781 29.355469 0 30.21875 0 L 46.152344 0 C 47.105469 0 47.105469 -1.300781 46.238281 -1.386719 Z M 46.238281 -1.386719 "/></g></g></g><g fill="#000000" fill-opacity="1"><g transform="translate(213.506264, 425.398441)"><g><path d="M 44.941406 -39.746094 L 29.355469 -39.746094 C 28.488281 -39.746094 28.488281 -38.445312 29.265625 -38.359375 C 32.125 -37.839844 36.019531 -38.273438 34.808594 -34.808594 L 23.726562 -8.484375 C 23.207031 -7.1875 22.601562 -7.1875 22.082031 -8.484375 C 16.625 -21.300781 15.585938 -24.417969 11.171875 -34.894531 C 10.042969 -38.1875 12.554688 -37.839844 15.328125 -38.359375 C 16.105469 -38.445312 16.105469 -39.746094 15.238281 -39.746094 L -2.683594 -39.746094 C -3.636719 -39.746094 -3.636719 -38.445312 -2.769531 -38.359375 C 0.0859375 -37.839844 2.945312 -38.53125 4.761719 -34.289062 L 18.011719 -2.683594 C 18.703125 -1.125 19.742188 1.210938 18.703125 3.898438 C 16.710938 8.574219 14.027344 13.855469 8.140625 13.855469 C 4.9375 13.855469 3.636719 12.035156 3.117188 9.003906 C 2.769531 7.101562 1.472656 6.234375 0.171875 6.234375 C -1.820312 6.234375 -3.722656 8.226562 -2.078125 11.34375 C -0.605469 14.027344 2.683594 16.453125 7.359375 16.453125 C 14.113281 16.453125 18.097656 11.949219 20.695312 5.800781 C 22.082031 2.425781 23.464844 -0.867188 24.851562 -4.242188 L 33.25 -24.160156 C 34.636719 -27.535156 36.019531 -30.824219 37.40625 -34.203125 C 37.40625 -34.117188 37.40625 -34.03125 37.40625 -34.03125 C 39.226562 -38.359375 42.167969 -37.839844 45.027344 -38.359375 C 45.890625 -38.445312 45.890625 -39.746094 44.941406 -39.746094 Z M 44.941406 -39.746094 "/></g></g></g><g fill="#000000" fill-opacity="1"><g transform="translate(260.957413, 425.398441)"><g><path d="M 2.078125 -45.027344 C 2.945312 -42.949219 5.367188 -43.292969 3.898438 -38.359375 C 3.550781 -37.40625 4.589844 -36.972656 5.195312 -37.839844 C 6.667969 -39.917969 8.398438 -43.292969 8.660156 -45.546875 C 8.917969 -48.75 7.015625 -50.136719 5.109375 -50.136719 C 2.945312 -50.136719 0.691406 -48.230469 2.078125 -45.027344 Z M 2.078125 -45.027344 "/></g></g></g><g fill="#000000" fill-opacity="1"><g transform="translate(271.521364, 425.398441)"><g><path d="M 19.65625 -23.550781 C 15.585938 -24.9375 8.398438 -26.324219 8.398438 -31.691406 C 8.398438 -34.894531 11.515625 -38.097656 17.230469 -38.097656 C 21.992188 -38.097656 24.332031 -36.019531 25.285156 -32.382812 C 25.804688 -30.394531 27.101562 -29.613281 28.316406 -29.613281 C 30.738281 -29.613281 32.992188 -32.730469 29.355469 -36.367188 C 26.496094 -39.226562 22.6875 -40.265625 17.230469 -40.351562 C 10.476562 -40.4375 3.378906 -37.40625 3.378906 -29.527344 C 3.378906 -20.953125 11.863281 -19.65625 18.183594 -17.492188 C 22.167969 -16.191406 28.746094 -14.199219 28.746094 -9.265625 C 28.746094 -5.457031 24.9375 -1.558594 18.183594 -1.558594 C 11.257812 -1.558594 6.496094 -3.808594 3.636719 -6.320312 C 3.378906 -6.582031 3.03125 -6.667969 2.769531 -6.667969 C 1.90625 -6.667969 1.386719 -5.714844 2.25 -4.847656 C 6.148438 -1.125 12.035156 0.953125 17.835938 0.953125 C 25.371094 0.953125 33.769531 -2.078125 33.769531 -10.996094 C 33.769531 -19.050781 25.976562 -21.472656 19.65625 -23.550781 Z M 19.65625 -23.550781 "/></g></g></g><g fill="#000000" fill-opacity="1"><g transform="translate(307.023152, 425.398441)"><g/></g><g transform="translate(325.986283, 425.398441)"><g><path d="M 27.707031 -54.378906 L 2.511719 -54.378906 C 1.644531 -54.378906 1.558594 -53.078125 2.425781 -52.90625 C 5.367188 -52.472656 7.878906 -53.167969 7.878906 -48.578125 L 7.878906 -5.714844 C 7.878906 -1.125 5.367188 -1.820312 2.425781 -1.386719 C 1.558594 -1.210938 1.644531 0.0859375 2.511719 0.0859375 L 19.65625 0.0859375 C 20.523438 0.0859375 20.609375 -1.210938 19.742188 -1.386719 C 16.796875 -1.820312 14.289062 -1.125 14.289062 -5.714844 L 14.289062 -48.75 C 14.289062 -51.78125 16.105469 -52.386719 18.269531 -52.386719 L 18.011719 -52.472656 C 18.53125 -52.472656 19.222656 -52.472656 20.953125 -52.472656 C 34.980469 -52.472656 43.726562 -47.277344 43.726562 -36.195312 C 43.726562 -25.109375 33.683594 -19.308594 20.867188 -19.308594 C 19.570312 -19.308594 20.089844 -19.394531 18.789062 -19.570312 C 17.316406 -19.742188 17.316406 -17.835938 18.875 -17.835938 L 21.128906 -17.925781 C 33.511719 -16.539062 51.085938 -21.128906 51.085938 -36.28125 C 51.085938 -48.230469 40.003906 -54.378906 27.707031 -54.378906 Z M 27.707031 -54.378906 "/></g></g></g><g fill="#000000" fill-opacity="1"><g transform="translate(378.806013, 425.398441)"><g><path d="M 38.878906 -22.6875 C 38.878906 -33.511719 31.34375 -40.4375 20.695312 -40.4375 C 8.832031 -40.4375 1.644531 -31.953125 1.820312 -19.828125 C 1.992188 -5.023438 12.210938 0.433594 21.90625 0.433594 C 28.921875 0.433594 35.070312 -2.683594 37.667969 -7.445312 C 38.273438 -8.484375 37.578125 -9.4375 36.800781 -9.4375 C 36.367188 -9.4375 35.847656 -9.179688 35.5 -8.574219 C 32.816406 -4.070312 28.316406 -2.164062 23.292969 -2.078125 C 15.847656 -1.90625 8.484375 -7.015625 8.398438 -19.914062 L 36.019531 -19.914062 C 38.011719 -19.914062 38.878906 -21.214844 38.878906 -22.6875 Z M 28.574219 -22.339844 L 8.574219 -22.339844 C 9.09375 -31.519531 12.988281 -37.667969 21.386719 -37.925781 C 29.09375 -37.925781 33.164062 -32.382812 33.164062 -26.667969 C 33.164062 -23.8125 31.863281 -22.339844 28.574219 -22.339844 Z M 28.574219 -22.339844 "/></g></g></g><g fill="#000000" fill-opacity="1"><g transform="translate(421.148386, 425.398441)"><g><path d="M 34.289062 -37.839844 C 31.863281 -39.570312 29.179688 -40.351562 26.496094 -40.351562 C 21.472656 -40.351562 16.453125 -37.578125 13.769531 -32.816406 L 13.769531 -39.746094 C 13.769531 -40.351562 13.160156 -40.4375 12.730469 -40.175781 C 9.785156 -38.792969 6.320312 -37.753906 3.203125 -36.886719 C 1.820312 -36.539062 2.25 -35.328125 3.117188 -35.328125 C 7.273438 -35.328125 7.792969 -35.414062 7.792969 -30.738281 L 7.792969 -5.800781 C 7.792969 -1.210938 5.28125 -1.992188 2.339844 -1.472656 C 1.558594 -1.300781 1.558594 0 2.425781 0 L 19.136719 0 C 20.003906 0 20.003906 -1.300781 19.222656 -1.472656 C 16.277344 -1.992188 13.769531 -1.210938 13.769531 -5.800781 L 13.769531 -26.148438 C 13.769531 -32.730469 19.742188 -37.492188 24.765625 -37.492188 C 27.1875 -37.492188 29.355469 -36.367188 30.480469 -33.597656 C 31.171875 -31.863281 32.296875 -31.171875 33.421875 -31.171875 C 36.019531 -31.171875 38.445312 -34.808594 34.289062 -37.839844 Z M 34.289062 -37.839844 "/></g></g></g><g fill="#000000" fill-opacity="1"><g transform="translate(459.507637, 425.398441)"><g><path d="M 30.480469 -55.589844 C 29.441406 -57.148438 27.015625 -58.707031 24.589844 -59.402344 L 24.589844 -59.488281 C 24.417969 -59.488281 24.160156 -59.488281 23.984375 -59.574219 C 23.640625 -59.660156 23.292969 -59.746094 22.859375 -59.746094 C 15.933594 -60.960938 7.878906 -57.753906 7.878906 -48.230469 L 7.878906 -39.832031 C 6.496094 -39.832031 4.9375 -39.832031 2.945312 -39.832031 C 1.386719 -39.832031 1.386719 -37.925781 2.945312 -37.925781 L 7.878906 -37.925781 L 7.878906 -5.714844 C 7.878906 -1.125 5.28125 -1.90625 2.425781 -1.386719 C 1.558594 -1.300781 1.558594 0.0859375 2.511719 0.0859375 L 19.136719 0.0859375 C 20.003906 0.0859375 20.089844 -1.300781 19.222656 -1.386719 C 16.277344 -1.90625 13.769531 -1.125 13.769531 -5.714844 L 13.769531 -37.925781 L 23.8125 -37.925781 C 25.285156 -37.925781 25.285156 -39.832031 23.8125 -39.832031 C 18.964844 -39.832031 16.019531 -39.832031 13.769531 -39.832031 L 13.769531 -48.230469 C 13.769531 -53.511719 16.367188 -57.929688 20.609375 -58.101562 C 23.640625 -58.015625 25.285156 -55.851562 25.890625 -53.425781 C 26.324219 -51.695312 27.621094 -50.914062 28.835938 -50.914062 C 30.652344 -50.914062 32.296875 -52.820312 30.480469 -55.589844 Z M 30.480469 -55.589844 "/></g></g></g><g fill="#000000" fill-opacity="1"><g transform="translate(487.389531, 425.398441)"><g><path d="M 38.878906 -22.6875 C 38.878906 -33.511719 31.34375 -40.4375 20.695312 -40.4375 C 8.832031 -40.4375 1.644531 -31.953125 1.820312 -19.828125 C 1.992188 -5.023438 12.210938 0.433594 21.90625 0.433594 C 28.921875 0.433594 35.070312 -2.683594 37.667969 -7.445312 C 38.273438 -8.484375 37.578125 -9.4375 36.800781 -9.4375 C 36.367188 -9.4375 35.847656 -9.179688 35.5 -8.574219 C 32.816406 -4.070312 28.316406 -2.164062 23.292969 -2.078125 C 15.847656 -1.90625 8.484375 -7.015625 8.398438 -19.914062 L 36.019531 -19.914062 C 38.011719 -19.914062 38.878906 -21.214844 38.878906 -22.6875 Z M 28.574219 -22.339844 L 8.574219 -22.339844 C 9.09375 -31.519531 12.988281 -37.667969 21.386719 -37.925781 C 29.09375 -37.925781 33.164062 -32.382812 33.164062 -26.667969 C 33.164062 -23.8125 31.863281 -22.339844 28.574219 -22.339844 Z M 28.574219 -22.339844 "/></g></g></g><g fill="#000000" fill-opacity="1"><g transform="translate(529.731928, 425.398441)"><g><path d="M 35.933594 -8.574219 C 33.25 -4.070312 28.226562 -2.164062 23.292969 -2.078125 C 15.847656 -1.90625 8.398438 -7.015625 8.398438 -20.003906 C 8.398438 -30.738281 13.421875 -37.925781 22.945312 -37.925781 C 24.9375 -37.925781 27.015625 -37.40625 28.921875 -36.453125 L 28.835938 -36.453125 C 29.265625 -36.367188 29.613281 -36.195312 29.875 -35.933594 C 29.960938 -35.933594 30.046875 -35.847656 30.132812 -35.761719 C 32.472656 -34.203125 32.644531 -31.34375 31.953125 -29.179688 C 31.085938 -26.410156 32.902344 -24.765625 34.722656 -24.765625 C 36.453125 -24.765625 38.1875 -26.238281 37.925781 -29.527344 C 37.839844 -30.394531 37.40625 -31.519531 36.714844 -32.644531 C 36.628906 -32.644531 36.628906 -32.730469 36.539062 -32.816406 C 36.28125 -33.164062 36.019531 -33.511719 35.761719 -33.941406 C 35.675781 -34.03125 35.675781 -34.117188 35.589844 -34.117188 L 35.15625 -34.636719 C 35.15625 -34.636719 35.070312 -34.722656 34.980469 -34.808594 C 34.808594 -35.070312 33.683594 -36.019531 33.421875 -36.28125 C 33.335938 -36.367188 33.25 -36.453125 33.25 -36.539062 L 33.164062 -36.539062 C 29.960938 -39.136719 25.890625 -40.4375 21.648438 -40.4375 C 9.785156 -40.4375 1.644531 -31.953125 1.820312 -19.828125 C 1.992188 -5.023438 12.121094 0.433594 21.820312 0.433594 C 28.835938 0.433594 35.5 -2.683594 38.097656 -7.445312 C 38.707031 -8.484375 38.011719 -9.4375 37.234375 -9.4375 C 36.800781 -9.4375 36.28125 -9.179688 35.933594 -8.574219 Z M 35.933594 -8.574219 "/></g></g></g><g fill="#000000" fill-opacity="1"><g transform="translate(571.554768, 425.398441)"><g><path d="M 20.867188 -3.203125 C 18.53125 -2.25 16.539062 -1.730469 14.894531 -1.730469 C 11.691406 -1.730469 9.957031 -3.722656 9.957031 -8.917969 L 9.957031 -37.492188 L 16.453125 -37.492188 C 18.011719 -37.492188 18.011719 -39.398438 16.453125 -39.398438 C 13.59375 -39.398438 11.515625 -39.398438 9.957031 -39.398438 C 9.957031 -43.292969 9.957031 -47.191406 9.957031 -51.085938 C 9.957031 -51.78125 9.4375 -52.128906 8.917969 -52.128906 C 8.398438 -52.128906 7.878906 -51.78125 7.878906 -51.085938 C 7.445312 -41.304688 5.109375 -39.484375 -1.472656 -39.398438 C -2.945312 -39.398438 -2.945312 -37.492188 -1.472656 -37.492188 L 4.070312 -37.492188 L 4.070312 -8.746094 C 3.984375 -1.558594 7.792969 1.039062 12.46875 1.039062 C 15.328125 1.039062 18.617188 0.0859375 21.5625 -1.386719 C 23.03125 -2.078125 22.253906 -3.808594 20.867188 -3.203125 Z M 20.867188 -3.203125 "/></g></g></g><g fill="#000000" fill-opacity="1"><g transform="translate(595.713269, 425.398441)"><g/></g><g transform="translate(614.6764, 425.398441)"><g><path d="M 27.707031 -54.378906 L 2.511719 -54.378906 C 1.644531 -54.378906 1.558594 -53.078125 2.425781 -52.90625 C 5.367188 -52.472656 7.878906 -53.167969 7.878906 -48.578125 L 7.878906 -5.714844 C 7.878906 -1.125 5.367188 -1.820312 2.425781 -1.386719 C 1.558594 -1.210938 1.644531 0.0859375 2.511719 0.0859375 L 19.65625 0.0859375 C 20.523438 0.0859375 20.609375 -1.210938 19.742188 -1.386719 C 16.796875 -1.820312 14.289062 -1.125 14.289062 -5.714844 L 14.289062 -48.75 C 14.289062 -51.78125 16.105469 -52.386719 18.269531 -52.386719 L 18.011719 -52.472656 C 18.53125 -52.472656 19.222656 -52.472656 20.953125 -52.472656 C 34.980469 -52.472656 43.726562 -47.277344 43.726562 -36.195312 C 43.726562 -25.109375 33.683594 -19.308594 20.867188 -19.308594 C 19.570312 -19.308594 20.089844 -19.394531 18.789062 -19.570312 C 17.316406 -19.742188 17.316406 -17.835938 18.875 -17.835938 L 21.128906 -17.925781 C 33.511719 -16.539062 51.085938 -21.128906 51.085938 -36.28125 C 51.085938 -48.230469 40.003906 -54.378906 27.707031 -54.378906 Z M 27.707031 -54.378906 "/></g></g></g><g fill="#000000" fill-opacity="1"><g transform="translate(667.49613, 425.398441)"><g><path d="M 38.878906 -22.6875 C 38.878906 -33.511719 31.34375 -40.4375 20.695312 -40.4375 C 8.832031 -40.4375 1.644531 -31.953125 1.820312 -19.828125 C 1.992188 -5.023438 12.210938 0.433594 21.90625 0.433594 C 28.921875 0.433594 35.070312 -2.683594 37.667969 -7.445312 C 38.273438 -8.484375 37.578125 -9.4375 36.800781 -9.4375 C 36.367188 -9.4375 35.847656 -9.179688 35.5 -8.574219 C 32.816406 -4.070312 28.316406 -2.164062 23.292969 -2.078125 C 15.847656 -1.90625 8.484375 -7.015625 8.398438 -19.914062 L 36.019531 -19.914062 C 38.011719 -19.914062 38.878906 -21.214844 38.878906 -22.6875 Z M 28.574219 -22.339844 L 8.574219 -22.339844 C 9.09375 -31.519531 12.988281 -37.667969 21.386719 -37.925781 C 29.09375 -37.925781 33.164062 -32.382812 33.164062 -26.667969 C 33.164062 -23.8125 31.863281 -22.339844 28.574219 -22.339844 Z M 28.574219 -22.339844 "/></g></g></g><g fill="#000000" fill-opacity="1"><g transform="translate(709.838527, 425.398441)"><g><path d="M 20.867188 -3.203125 C 18.53125 -2.25 16.539062 -1.730469 14.894531 -1.730469 C 11.691406 -1.730469 9.957031 -3.722656 9.957031 -8.917969 L 9.957031 -37.492188 L 16.453125 -37.492188 C 18.011719 -37.492188 18.011719 -39.398438 16.453125 -39.398438 C 13.59375 -39.398438 11.515625 -39.398438 9.957031 -39.398438 C 9.957031 -43.292969 9.957031 -47.191406 9.957031 -51.085938 C 9.957031 -51.78125 9.4375 -52.128906 8.917969 -52.128906 C 8.398438 -52.128906 7.878906 -51.78125 7.878906 -51.085938 C 7.445312 -41.304688 5.109375 -39.484375 -1.472656 -39.398438 C -2.945312 -39.398438 -2.945312 -37.492188 -1.472656 -37.492188 L 4.070312 -37.492188 L 4.070312 -8.746094 C 3.984375 -1.558594 7.792969 1.039062 12.46875 1.039062 C 15.328125 1.039062 18.617188 0.0859375 21.5625 -1.386719 C 23.03125 -2.078125 22.253906 -3.808594 20.867188 -3.203125 Z M 20.867188 -3.203125 "/></g></g></g><g fill="#000000" fill-opacity="1"><g transform="translate(733.997028, 425.398441)"><g><path d="M 19.65625 -23.550781 C 15.585938 -24.9375 8.398438 -26.324219 8.398438 -31.691406 C 8.398438 -34.894531 11.515625 -38.097656 17.230469 -38.097656 C 21.992188 -38.097656 24.332031 -36.019531 25.285156 -32.382812 C 25.804688 -30.394531 27.101562 -29.613281 28.316406 -29.613281 C 30.738281 -29.613281 32.992188 -32.730469 29.355469 -36.367188 C 26.496094 -39.226562 22.6875 -40.265625 17.230469 -40.351562 C 10.476562 -40.4375 3.378906 -37.40625 3.378906 -29.527344 C 3.378906 -20.953125 11.863281 -19.65625 18.183594 -17.492188 C 22.167969 -16.191406 28.746094 -14.199219 28.746094 -9.265625 C 28.746094 -5.457031 24.9375 -1.558594 18.183594 -1.558594 C 11.257812 -1.558594 6.496094 -3.808594 3.636719 -6.320312 C 3.378906 -6.582031 3.03125 -6.667969 2.769531 -6.667969 C 1.90625 -6.667969 1.386719 -5.714844 2.25 -4.847656 C 6.148438 -1.125 12.035156 0.953125 17.835938 0.953125 C 25.371094 0.953125 33.769531 -2.078125 33.769531 -10.996094 C 33.769531 -19.050781 25.976562 -21.472656 19.65625 -23.550781 Z M 19.65625 -23.550781 "/></g></g></g></svg>